<svg width="560" height="162" viewBox="0 0 560 162" fill="none" xmlns="http://www.w3.org/2000/svg">
<path d="M556.889 143.317C556.889 151.95 549.76 158.943 540.942 158.943H19.0789C10.2653 158.943 3.11133 151.95 3.11133 143.317V18.7033C3.11133 10.0742 10.2653 3.05664 19.0789 3.05664H540.938C549.76 3.05664 556.885 10.0742 556.885 18.7033L556.889 143.317Z" fill="black"/>
<path d="M124.975 80.1251C124.855 67.0719 135.922 60.7215 136.428 60.4259C130.16 51.5037 120.445 50.2847 117.031 50.1875C108.872 49.3491 100.957 54.9543 96.801 54.9543C92.5616 54.9543 86.161 50.2685 79.2626 50.4062C70.3856 50.5398 62.081 55.5578 57.5263 63.35C48.1266 79.2381 55.137 102.586 64.1426 115.429C68.6475 121.719 73.9115 128.741 80.8016 128.494C87.5423 128.223 90.0602 124.298 98.1948 124.298C106.255 124.298 108.619 128.494 115.646 128.336C122.88 128.223 127.435 122.018 131.782 115.672C136.988 108.463 139.079 101.363 139.162 100.999C138.992 100.942 125.112 95.7702 124.975 80.1251Z" fill="white"/>
<path d="M111.701 41.7392C115.327 37.3125 117.807 31.2902 117.119 25.1787C111.871 25.4055 105.309 28.7225 101.53 33.0519C98.1865 36.867 95.1998 43.1202 95.9713 49.0008C101.866 49.4301 107.918 46.097 111.701 41.7392Z" fill="white"/>
<path d="M203.466 40.5362C203.466 45.3031 202.002 48.8914 199.077 51.3011C196.369 53.5246 192.519 54.6383 187.533 54.6383C185.061 54.6383 182.945 54.533 181.174 54.3224V28.2769C183.484 27.9124 185.973 27.7261 188.661 27.7261C193.411 27.7261 196.991 28.7345 199.405 30.7514C202.11 33.0316 203.466 36.2918 203.466 40.5362ZM198.882 40.6537C198.882 37.5635 198.044 35.1943 196.369 33.5419C194.693 31.8935 192.245 31.0673 189.022 31.0673C187.653 31.0673 186.488 31.1564 185.521 31.3427V51.1432C186.056 51.2242 187.035 51.2606 188.458 51.2606C191.785 51.2606 194.353 50.3575 196.161 48.5512C197.97 46.7449 198.882 44.1124 198.882 40.6537Z" fill="white"/>
<path d="M227.769 44.7C227.769 47.6363 226.911 50.042 225.193 51.9293C223.393 53.8692 221.008 54.8372 218.029 54.8372C215.159 54.8372 212.873 53.9097 211.168 52.0467C209.468 50.1878 208.617 47.8428 208.617 45.0159C208.617 42.0594 209.492 39.6335 211.251 37.7502C213.01 35.867 215.375 34.9233 218.353 34.9233C221.223 34.9233 223.53 35.8508 225.276 37.7097C226.935 39.516 227.769 41.8488 227.769 44.7ZM223.26 44.8377C223.26 43.076 222.87 41.5653 222.095 40.3058C221.182 38.783 219.884 38.0216 218.195 38.0216C216.449 38.0216 215.121 38.783 214.209 40.3058C213.429 41.5653 213.043 43.1003 213.043 44.9147C213.043 46.6764 213.433 48.1871 214.209 49.4466C215.151 50.9694 216.461 51.7308 218.154 51.7308C219.813 51.7308 221.116 50.9573 222.053 49.4061C222.858 48.1223 223.26 46.5995 223.26 44.8377Z" fill="white"/>
<path d="M260.357 35.312L254.239 54.4037H250.256L247.722 46.1134C247.079 44.0438 246.556 41.9864 246.15 39.9452H246.071C245.694 42.0431 245.171 44.0965 244.499 46.1134L241.807 54.4037H237.779L232.025 35.312H236.493L238.704 44.3881C239.239 46.5346 239.679 48.5798 240.031 50.5157H240.11C240.434 48.92 240.969 46.8869 241.724 44.4286L244.499 35.3161H248.041L250.7 44.2342C251.343 46.409 251.866 48.5029 252.268 50.5198H252.389C252.683 48.5555 253.127 46.4617 253.716 44.2342L256.089 35.3161H260.357V35.312Z" fill="white"/>
<path d="M282.894 54.4038H278.547V43.4688C278.547 40.0992 277.236 38.4144 274.606 38.4144C273.316 38.4144 272.275 38.8761 271.466 39.8035C270.665 40.731 270.259 41.8245 270.259 43.0759V54.3997H265.912V40.7674C265.912 39.0907 265.858 37.2723 265.754 35.304H269.574L269.778 38.2888H269.898C270.404 37.3614 271.159 36.5959 272.15 35.9844C273.328 35.2716 274.647 34.9111 276.091 34.9111C277.916 34.9111 279.434 35.4862 280.642 36.6405C282.143 38.0539 282.894 40.164 282.894 42.9666V54.4038V54.4038Z" fill="white"/>
<path d="M294.882 54.4036H290.539V26.5518H294.882V54.4036Z" fill="white"/>
<path d="M320.476 44.7C320.476 47.6363 319.618 50.042 317.9 51.9293C316.1 53.8692 313.711 54.8372 310.736 54.8372C307.862 54.8372 305.576 53.9097 303.875 52.0467C302.175 50.1878 301.324 47.8428 301.324 45.0159C301.324 42.0594 302.199 39.6335 303.958 37.7502C305.717 35.867 308.082 34.9233 311.056 34.9233C313.93 34.9233 316.233 35.8508 317.983 37.7097C319.642 39.516 320.476 41.8488 320.476 44.7ZM315.963 44.8377C315.963 43.076 315.573 41.5653 314.797 40.3058C313.889 38.783 312.586 38.0216 310.902 38.0216C309.152 38.0216 307.824 38.783 306.916 40.3058C306.136 41.5653 305.75 43.1003 305.75 44.9147C305.75 46.6764 306.14 48.1871 306.916 49.4466C307.858 50.9694 309.168 51.7308 310.861 51.7308C312.52 51.7308 313.818 50.9573 314.756 49.4061C315.565 48.1223 315.963 46.5995 315.963 44.8377Z" fill="white"/>
<path d="M341.516 54.4038H337.613L337.289 52.2047H337.169C335.833 53.9583 333.929 54.8372 331.457 54.8372C329.611 54.8372 328.118 54.258 326.994 53.1078C325.973 52.0629 325.463 50.7629 325.463 49.2198C325.463 46.887 326.458 45.1091 328.462 43.8779C330.461 42.6467 333.274 42.0432 336.895 42.0716V41.7152C336.895 39.2001 335.543 37.9446 332.834 37.9446C330.905 37.9446 329.205 38.4185 327.736 39.3581L326.853 36.5717C328.669 35.4741 330.914 34.9233 333.56 34.9233C338.671 34.9233 341.234 37.5558 341.234 42.8208V49.8516C341.234 51.7592 341.33 53.2779 341.516 54.4038ZM337.003 47.8428V44.8985C332.208 44.8175 329.81 46.1013 329.81 48.746C329.81 49.7423 330.084 50.4875 330.644 50.9856C331.204 51.4838 331.917 51.7308 332.768 51.7308C333.722 51.7308 334.614 51.4352 335.427 50.8479C336.244 50.2566 336.746 49.5074 336.932 48.588C336.978 48.3815 337.003 48.1304 337.003 47.8428Z" fill="white"/>
<path d="M366.219 54.4036H362.362L362.158 51.3378H362.038C360.806 53.6706 358.707 54.837 355.758 54.837C353.402 54.837 351.44 53.9338 349.884 52.1275C348.328 50.3212 347.553 47.9763 347.553 45.0967C347.553 42.0066 348.395 39.5037 350.087 37.5921C351.726 35.8101 353.733 34.9191 356.123 34.9191C358.749 34.9191 360.586 35.7817 361.632 37.5111H361.714V26.5518H366.066V49.2601C366.066 51.1191 366.116 52.8322 366.219 54.4036ZM361.714 46.3522V43.1689C361.714 42.6181 361.673 42.1726 361.594 41.8324C361.349 40.8118 360.823 39.9532 360.022 39.2607C359.213 38.5681 358.238 38.2198 357.114 38.2198C355.492 38.2198 354.223 38.8476 353.29 40.1071C352.365 41.3667 351.896 42.9745 351.896 44.9388C351.896 46.8261 352.34 48.357 353.232 49.5355C354.173 50.791 355.442 51.4188 357.031 51.4188C358.458 51.4188 359.599 50.8963 360.466 49.8474C361.304 48.8794 361.714 47.713 361.714 46.3522Z" fill="white"/>
<path d="M403.398 44.7C403.398 47.6363 402.539 50.042 400.822 51.9293C399.022 53.8692 396.641 54.8372 393.658 54.8372C390.792 54.8372 388.506 53.9097 386.797 52.0467C385.096 50.1878 384.246 47.8428 384.246 45.0159C384.246 42.0594 385.121 39.6335 386.88 37.7502C388.639 35.867 391.003 34.9233 393.986 34.9233C396.852 34.9233 399.163 35.8508 400.905 37.7097C402.564 39.516 403.398 41.8488 403.398 44.7ZM398.893 44.8377C398.893 43.076 398.503 41.5653 397.728 40.3058C396.811 38.783 395.517 38.0216 393.824 38.0216C392.082 38.0216 390.755 38.783 389.838 40.3058C389.058 41.5653 388.672 43.1003 388.672 44.9147C388.672 46.6764 389.062 48.1871 389.838 49.4466C390.779 50.9694 392.09 51.7308 393.783 51.7308C395.442 51.7308 396.749 50.9573 397.686 49.4061C398.487 48.1223 398.893 46.5995 398.893 44.8377Z" fill="white"/>
<path d="M426.773 54.4038H422.43V43.4688C422.43 40.0992 421.119 38.4144 418.485 38.4144C417.195 38.4144 416.153 38.8761 415.349 39.8035C414.544 40.731 414.142 41.8245 414.142 43.0759V54.3997H409.79V40.7674C409.79 39.0907 409.74 37.2723 409.637 35.304H413.453L413.656 38.2888H413.777C414.287 37.3614 415.042 36.5959 416.029 35.9844C417.211 35.2716 418.526 34.9111 419.974 34.9111C421.795 34.9111 423.313 35.4862 424.52 36.6405C426.026 38.0539 426.773 40.164 426.773 42.9666V54.4038V54.4038Z" fill="white"/>
<path d="M456.03 38.4911H451.243V47.7656C451.243 50.1227 452.094 51.3012 453.778 51.3012C454.558 51.3012 455.205 51.2364 455.715 51.1028L455.827 54.3225C454.968 54.6384 453.84 54.7964 452.451 54.7964C450.733 54.7964 449.397 54.2861 448.431 53.2655C447.46 52.2449 446.979 50.5277 446.979 48.1179V38.4911H444.121V35.3118H446.979V31.8126L451.239 30.5571V35.3078H456.026V38.4911H456.03Z" fill="white"/>
<path d="M479.045 54.4036H474.694V43.5496C474.694 40.1274 473.383 38.4142 470.757 38.4142C468.741 38.4142 467.364 39.4065 466.609 41.391C466.48 41.8081 466.406 42.3184 466.406 42.9178V54.3996H462.062V26.5518H466.406V38.0578H466.489C467.857 35.964 469.82 34.9191 472.362 34.9191C474.163 34.9191 475.652 35.4942 476.834 36.6484C478.307 38.0862 479.045 40.2246 479.045 43.0515V54.4036V54.4036Z" fill="white"/>
<path d="M502.783 43.9547C502.783 44.7161 502.725 45.356 502.622 45.8784H489.584C489.642 47.7657 490.264 49.2035 491.471 50.1998C492.575 51.0908 493.998 51.5363 495.74 51.5363C497.669 51.5363 499.427 51.2366 501.012 50.6331L501.692 53.5815C499.838 54.3672 497.656 54.7601 495.13 54.7601C492.102 54.7601 489.717 53.8893 487.991 52.1478C486.257 50.4063 485.398 48.0695 485.398 45.1373C485.398 42.2577 486.199 39.8601 487.813 37.9485C489.497 35.9073 491.774 34.8867 494.649 34.8867C497.461 34.8867 499.598 35.9073 501.041 37.9485C502.207 39.5685 502.783 41.5733 502.783 43.9547ZM498.635 42.8571C498.668 41.5976 498.382 40.5122 497.793 39.5969C497.038 38.4183 495.889 37.827 494.334 37.827C492.915 37.827 491.758 38.4021 490.874 39.5564C490.152 40.4757 489.725 41.5733 489.584 42.8571H498.635Z" fill="white"/>
<path d="M222.528 127.591H213.108L207.948 111.76H190.011L185.095 127.591H175.924L193.694 73.6938H204.67L222.528 127.591ZM206.392 105.118L201.725 91.0441C201.232 89.6063 200.307 86.2205 198.942 80.8907H198.776C198.233 83.183 197.357 86.5688 196.154 91.0441L191.571 105.118H206.392V105.118Z" fill="white"/>
<path d="M268.228 107.682C268.228 114.291 266.398 119.516 262.74 123.351C259.463 126.765 255.393 128.47 250.536 128.47C245.292 128.47 241.526 126.631 239.232 122.954H239.066V143.427H230.222V101.521C230.222 97.3662 230.11 93.1015 229.895 88.7275H237.672L238.166 94.8876H238.332C241.281 90.2463 245.757 87.9297 251.764 87.9297C256.459 87.9297 260.379 89.74 263.515 93.3648C266.66 96.9936 268.228 101.764 268.228 107.682ZM259.218 107.997C259.218 104.215 258.347 101.096 256.596 98.6419C254.684 96.0823 252.116 94.8025 248.897 94.8025C246.715 94.8025 244.732 95.5153 242.961 96.9207C241.186 98.3382 240.024 100.189 239.481 102.481C239.207 103.551 239.07 104.425 239.07 105.114V111.594C239.07 114.421 239.958 116.806 241.733 118.754C243.509 120.702 245.815 121.674 248.652 121.674C251.983 121.674 254.576 120.419 256.43 117.916C258.289 115.409 259.218 112.104 259.218 107.997Z" fill="white"/>
<path d="M314.012 107.682C314.012 114.291 312.183 119.516 308.52 123.351C305.247 126.765 301.178 128.47 296.321 128.47C291.077 128.47 287.311 126.631 285.021 122.954H284.855V143.427H276.011V101.521C276.011 97.3662 275.899 93.1015 275.684 88.7275H283.461L283.955 94.8876H284.121C287.066 90.2463 291.542 87.9297 297.553 87.9297C302.244 87.9297 306.164 89.74 309.309 93.3648C312.44 96.9936 314.012 101.764 314.012 107.682ZM305.003 107.997C305.003 104.215 304.127 101.096 302.377 98.6419C300.465 96.0823 297.905 94.8025 294.682 94.8025C292.496 94.8025 290.517 95.5153 288.742 96.9207C286.967 98.3382 285.809 100.189 285.266 102.481C284.996 103.551 284.855 104.425 284.855 105.114V111.594C284.855 114.421 285.743 116.806 287.51 118.754C289.285 120.698 291.592 121.674 294.437 121.674C297.768 121.674 300.361 120.419 302.215 117.916C304.074 115.409 305.003 112.104 305.003 107.997Z" fill="white"/>
<path d="M365.2 112.477C365.2 117.061 363.57 120.791 360.297 123.671C356.701 126.818 351.694 128.389 345.26 128.389C339.32 128.389 334.558 127.272 330.953 125.032L333.002 117.835C336.885 120.127 341.145 121.278 345.787 121.278C349.118 121.278 351.71 120.54 353.573 119.074C355.427 117.608 356.352 115.64 356.352 113.186C356.352 110.999 355.589 109.156 354.058 107.661C352.536 106.167 349.993 104.778 346.442 103.494C336.777 99.9745 331.949 94.8189 331.949 88.0392C331.949 83.6085 333.641 79.9756 337.03 77.1487C340.407 74.3177 344.912 72.9043 350.545 72.9043C355.568 72.9043 359.741 73.7588 363.072 75.4639L360.861 82.5028C357.75 80.8504 354.233 80.0242 350.296 80.0242C347.185 80.0242 344.754 80.7735 343.012 82.2639C341.539 83.5963 340.801 85.2204 340.801 87.1441C340.801 89.2744 341.643 91.0361 343.335 92.4212C344.808 93.701 347.484 95.0862 351.366 96.5806C356.116 98.4477 359.604 100.631 361.849 103.134C364.084 105.628 365.2 108.751 365.2 112.477Z" fill="white"/>
<path d="M394.441 95.2075H384.693V114.076C384.693 118.876 386.41 121.273 389.853 121.273C391.434 121.273 392.744 121.14 393.781 120.872L394.026 127.429C392.284 128.065 389.99 128.385 387.149 128.385C383.656 128.385 380.926 127.344 378.956 125.267C376.994 123.185 376.007 119.694 376.007 114.789V95.1994H370.199V88.7194H376.007V81.6035L384.693 79.0439V88.7194H394.441V95.2075Z" fill="white"/>
<path d="M438.422 107.839C438.422 113.813 436.672 118.718 433.179 122.553C429.516 126.502 424.654 128.47 418.594 128.47C412.753 128.47 408.103 126.579 404.635 122.796C401.168 119.013 399.434 114.238 399.434 108.483C399.434 102.461 401.217 97.528 404.797 93.6927C408.369 89.8533 413.189 87.9336 419.249 87.9336C425.09 87.9336 429.79 89.8249 433.336 93.6117C436.73 97.285 438.422 102.028 438.422 107.839ZM429.246 108.119C429.246 104.535 428.462 101.461 426.874 98.8969C425.019 95.7946 422.369 94.2475 418.934 94.2475C415.379 94.2475 412.679 95.7987 410.824 98.8969C409.236 101.465 408.452 104.587 408.452 108.281C408.452 111.865 409.236 114.939 410.824 117.499C412.737 120.601 415.408 122.148 418.855 122.148C422.232 122.148 424.882 120.568 426.795 117.418C428.425 114.805 429.246 111.699 429.246 108.119Z" fill="white"/>
<path d="M467.17 96.3213C466.294 96.1633 465.361 96.0823 464.382 96.0823C461.271 96.0823 458.865 97.2285 457.173 99.5248C455.7 101.55 454.962 104.109 454.962 107.2V127.591H446.122L446.205 100.967C446.205 96.4873 446.093 92.409 445.873 88.7316H453.576L453.9 96.1674H454.145C455.078 93.6118 456.55 91.5544 458.566 90.0114C460.537 88.6222 462.665 87.9297 464.959 87.9297C465.776 87.9297 466.514 87.9864 467.17 88.0876V96.3213Z" fill="white"/>
<path d="M506.721 106.321C506.721 107.868 506.617 109.172 506.398 110.237H479.866C479.97 114.077 481.251 117.013 483.715 119.038C485.951 120.848 488.843 121.755 492.393 121.755C496.322 121.755 499.906 121.144 503.129 119.917L504.514 125.911C500.748 127.515 496.301 128.312 491.17 128.312C484.997 128.312 480.152 126.538 476.626 122.995C473.109 119.451 471.346 114.692 471.346 108.723C471.346 102.862 472.984 97.9819 476.265 94.0899C479.7 89.9346 484.342 87.8569 490.182 87.8569C495.919 87.8569 500.262 89.9346 503.212 94.0899C505.547 97.3906 506.721 101.473 506.721 106.321ZM498.288 104.081C498.346 101.522 497.769 99.3103 496.571 97.4433C495.04 95.0416 492.688 93.8428 489.523 93.8428C486.632 93.8428 484.28 95.0133 482.483 97.3623C481.011 99.2293 480.136 101.469 479.866 104.077H498.288V104.081Z" fill="white"/>
</svg>
