<svg width="13" height="23" viewBox="0 0 13 23" fill="none" xmlns="http://www.w3.org/2000/svg">
<g clip-path="url(#clip0_3323_102903)">
<path d="M5.05556 14.2375V21.2763L6.04951 22.7597C6.26392 23.0795 6.73653 23.0795 6.95094 22.7597L7.94444 21.2763V14.2375C7.47545 14.3238 6.99382 14.375 6.5 14.375C6.00618 14.375 5.52455 14.3238 5.05556 14.2375ZM6.5 0C2.9101 0 0 2.89611 0 6.46875C0 10.0414 2.9101 12.9375 6.5 12.9375C10.0899 12.9375 13 10.0414 13 6.46875C13 2.89611 10.0899 0 6.5 0ZM6.5 3.41406C4.80729 3.41406 3.43056 4.78418 3.43056 6.46875C3.43056 6.76613 3.18771 7.00781 2.88889 7.00781C2.59007 7.00781 2.34722 6.76613 2.34722 6.46875C2.34722 4.18986 4.21056 2.33594 6.5 2.33594C6.79882 2.33594 7.04167 2.57762 7.04167 2.875C7.04167 3.17238 6.79882 3.41406 6.5 3.41406Z" fill="white"/>
</g>
<defs>
<clipPath id="clip0_3323_102903">
<rect width="13" height="23" fill="white"/>
</clipPath>
</defs>
</svg>
