<svg width="18" height="18" viewBox="0 0 18 18" fill="none" xmlns="http://www.w3.org/2000/svg">
<g clip-path="url(#clip0_3323_103500)">
<path d="M12.2035 0.86466C12.4742 0.210754 13.1879 -0.137293 13.8699 0.0490349L16.9637 0.892785C17.5754 1.06154 18.0008 1.617 18.0008 2.24982C18.0008 10.9475 10.9484 17.9998 2.25079 17.9998C1.61798 17.9998 1.06251 17.5744 0.893762 16.9627L0.0500114 13.869C-0.136317 13.1869 0.21173 12.4733 0.865637 12.2026L4.24064 10.7963C4.81368 10.5572 5.47814 10.7225 5.86837 11.2041L7.28868 12.9373C9.76368 11.7666 11.7676 9.76271 12.9383 7.28771L11.2051 5.87091C10.7235 5.47716 10.5582 4.81622 10.7973 4.24318L12.2035 0.868176V0.86466Z" fill="white"/>
</g>
<defs>
<clipPath id="clip0_3323_103500">
<rect width="18" height="18" fill="white"/>
</clipPath>
</defs>
</svg>
