<svg width="26" height="22" viewBox="0 0 26 22" fill="none" xmlns="http://www.w3.org/2000/svg">
<path d="M0.8125 3.6668C0.8125 3.08332 1.06931 2.52374 1.52643 2.11116C1.98355 1.69858 2.60353 1.4668 3.25 1.4668H22.75C23.3965 1.4668 24.0165 1.69858 24.4736 2.11116C24.9307 2.52374 25.1875 3.08332 25.1875 3.6668V5.43853L13 11.6249L0.8125 5.43853V3.6668Z" fill="white"/>
<path d="M0.8125 7.12061V18.3333C0.8125 18.9168 1.06931 19.4763 1.52643 19.8889C1.98355 20.3015 2.60353 20.5333 3.25 20.5333H22.75C23.3965 20.5333 24.0165 20.3015 24.4736 19.8889C24.9307 19.4763 25.1875 18.9168 25.1875 18.3333V7.12061L13 13.3085L0.8125 7.12061Z" fill="white"/>
</svg>
